<svg width="296" height="49" viewBox="0 0 296 49" fill="none" xmlns="http://www.w3.org/2000/svg">
<mask id="path-1-outside-1" maskUnits="userSpaceOnUse" x="0.423828" y="0.361328" width="295" height="49" fill="black">
<rect fill="white" x="0.423828" y="0.361328" width="295" height="49"/>
<path d="M12.457 40.8066C12.2031 41.3145 11.8984 41.763 11.543 42.1523C11.1875 42.5417 10.8066 42.8633 10.4004 43.1172C9.99414 43.3711 9.57943 43.5573 9.15625 43.6758C8.73307 43.8112 8.33529 43.8789 7.96289 43.8789C7.42122 43.8789 6.96419 43.735 6.5918 43.4473C6.2194 43.1764 6.0332 42.7702 6.0332 42.2285C6.0332 42.0423 6.05013 41.8392 6.08398 41.6191C6.13477 41.3822 6.22786 41.1283 6.36328 40.8574C7.64974 38.1999 8.92773 35.6439 10.1973 33.1895C11.4837 30.735 12.7194 28.4414 13.9043 26.3086C15.1061 24.1758 16.2402 22.2376 17.3066 20.4941C18.373 18.7337 19.3379 17.2357 20.2012 16C21.0814 14.7474 21.8262 13.7826 22.4355 13.1055C23.0618 12.4284 23.5189 12.0898 23.8066 12.0898C24.3991 12.0898 24.8392 12.2591 25.127 12.5977C25.4147 12.9362 25.5586 13.334 25.5586 13.791C25.5586 14.1634 25.4655 14.5358 25.2793 14.9082C24.8561 15.7715 24.3737 16.7533 23.832 17.8535C23.3073 18.9368 22.7487 20.0964 22.1562 21.332C21.5638 22.5508 20.946 23.8203 20.3027 25.1406C19.6595 26.444 19.0247 27.7474 18.3984 29.0508C17.7721 30.3372 17.1543 31.5898 16.5449 32.8086C15.9525 34.0104 15.3939 35.1276 14.8691 36.1602C14.3613 37.1927 13.8958 38.1152 13.4727 38.9277C13.0664 39.7233 12.7279 40.3496 12.457 40.8066ZM42.1387 11.0996C42.1387 11.4043 42.0202 11.8359 41.7832 12.3945C41.5632 12.9362 41.2415 13.4694 40.8184 13.9941C40.4121 14.5189 39.9128 14.9759 39.3203 15.3652C38.7448 15.7546 38.1016 15.9492 37.3906 15.9492C37.2214 15.9492 37.0098 15.9408 36.7559 15.9238C36.502 15.89 36.248 15.8223 35.9941 15.7207C35.7572 15.6191 35.554 15.4753 35.3848 15.2891C35.2155 15.1029 35.1309 14.8574 35.1309 14.5527C35.1309 14.4004 35.207 14.1888 35.3594 13.918C35.5117 13.6302 35.6725 13.3255 35.8418 13.0039C36.028 12.6823 36.1973 12.3691 36.3496 12.0645C36.502 11.7598 36.5781 11.5059 36.5781 11.3027C36.5781 10.7272 36.1719 10.3125 35.3594 10.0586C34.5469 9.78776 33.1842 9.65234 31.2715 9.65234C29.3587 9.72005 27.6322 9.83854 26.0918 10.0078C24.5514 10.1602 23.1296 10.3633 21.8262 10.6172C20.5228 10.8542 19.304 11.1335 18.1699 11.4551C17.0358 11.7767 15.9186 12.1237 14.8184 12.4961C13.7181 12.8516 12.6009 13.2409 11.4668 13.6641C10.3496 14.0703 9.15625 14.485 7.88672 14.9082C7.76823 14.9421 7.64974 14.9759 7.53125 15.0098C7.42969 15.0436 7.33659 15.0605 7.25195 15.0605C6.98112 15.0605 6.73568 15.0013 6.51562 14.8828C6.29557 14.7643 6.10091 14.6035 5.93164 14.4004C5.7793 14.1973 5.65234 13.9688 5.55078 13.7148C5.46615 13.4609 5.42383 13.1986 5.42383 12.9277C5.42383 12.4876 5.7793 11.9967 6.49023 11.4551C7.20117 10.8965 8.17448 10.3379 9.41016 9.7793C10.6458 9.2207 12.1016 8.67904 13.7773 8.1543C15.4531 7.61263 17.2559 7.13867 19.1855 6.73242C21.1322 6.30924 23.1549 5.97917 25.2539 5.74219C27.3698 5.48828 29.4772 5.36133 31.5762 5.36133C33.3874 5.36133 34.9531 5.50521 36.2734 5.79297C37.5938 6.08073 38.6855 6.47852 39.5488 6.98633C40.4121 7.49414 41.0553 8.10352 41.4785 8.81445C41.9017 9.50846 42.1217 10.2702 42.1387 11.0996Z"/>
<path d="M36.4004 28.0098C35.6048 28.0098 34.8346 28.2129 34.0898 28.6191C33.362 29.0085 32.7103 29.5332 32.1348 30.1934C31.5762 30.8366 31.1276 31.5729 30.7891 32.4023C30.4505 33.2148 30.2812 34.0527 30.2812 34.916C30.2812 35.2376 30.3066 35.5931 30.3574 35.9824C30.4082 36.3548 30.5098 36.7103 30.6621 37.0488C30.8314 37.3704 31.0684 37.6413 31.373 37.8613C31.6777 38.0814 32.084 38.1914 32.5918 38.1914C33.3704 38.1914 34.1237 37.9883 34.8516 37.582C35.5964 37.1589 36.2565 36.6172 36.832 35.957C37.4076 35.2799 37.8646 34.5182 38.2031 33.6719C38.5417 32.8255 38.7109 31.9707 38.7109 31.1074C38.7109 30.7689 38.6855 30.4219 38.6348 30.0664C38.6009 29.694 38.4993 29.3555 38.3301 29.0508C38.1777 28.7461 37.9492 28.5007 37.6445 28.3145C37.3398 28.1113 36.9251 28.0098 36.4004 28.0098ZM37.7207 23.541C38.3639 23.541 39.0495 23.6257 39.7773 23.7949C40.5221 23.9642 41.2077 24.252 41.834 24.6582C42.4603 25.0645 42.9766 25.6061 43.3828 26.2832C43.806 26.9434 44.0176 27.7643 44.0176 28.7461C44.0176 29.2539 43.9499 29.8379 43.8145 30.498C43.679 31.1413 43.4759 31.8184 43.2051 32.5293C43.3743 32.7324 43.569 32.8763 43.7891 32.9609C44.0091 33.0456 44.2461 33.0879 44.5 33.0879C44.8555 33.0879 45.2448 32.9863 45.668 32.7832C46.1081 32.5801 46.5566 32.3177 47.0137 31.9961C47.4707 31.6745 47.9277 31.3105 48.3848 30.9043C48.8418 30.498 49.2734 30.0918 49.6797 29.6855C50.0859 29.2793 50.4499 28.8984 50.7715 28.543C51.11 28.1706 51.3893 27.8574 51.6094 27.6035C51.7279 27.485 51.8717 27.4258 52.041 27.4258C52.278 27.4258 52.4896 27.5527 52.6758 27.8066C52.862 28.0436 52.9551 28.3822 52.9551 28.8223C52.9551 29.2624 52.8197 29.7702 52.5488 30.3457C52.2949 30.9212 51.8125 31.5221 51.1016 32.1484C50.6953 32.5885 50.2298 33.0964 49.7051 33.6719C49.1803 34.2474 48.6217 34.7891 48.0293 35.2969C47.4368 35.8047 46.819 36.2363 46.1758 36.5918C45.5326 36.9473 44.8893 37.125 44.2461 37.125C43.806 37.125 43.3743 37.0573 42.9512 36.9219C42.5449 36.7865 42.1302 36.5664 41.707 36.2617C41.0977 37.2096 40.4036 38.0729 39.625 38.8516C38.8464 39.6302 37.9746 40.2988 37.0098 40.8574C36.0618 41.416 35.0293 41.8477 33.9121 42.1523C32.8118 42.474 31.6354 42.6348 30.3828 42.6348C29.9089 42.6348 29.3587 42.5417 28.7324 42.3555C28.1061 42.1693 27.5052 41.8646 26.9297 41.4414C26.3711 41.0013 25.8971 40.4342 25.5078 39.7402C25.1185 39.0462 24.9238 38.1999 24.9238 37.2012C24.9238 36.5241 25.0339 35.7116 25.2539 34.7637C25.474 33.8158 25.804 32.8424 26.2441 31.8438C26.7012 30.8281 27.2682 29.8294 27.9453 28.8477C28.6393 27.849 29.4603 26.9603 30.4082 26.1816C31.3561 25.3861 32.4395 24.7513 33.6582 24.2773C34.877 23.7865 36.2311 23.541 37.7207 23.541Z"/>
<path d="M75.248 35.9316C74.5033 36.778 73.6315 37.6074 72.6328 38.4199C71.651 39.2155 70.6354 39.9264 69.5859 40.5527C68.5365 41.179 67.5039 41.6784 66.4883 42.0508C65.4727 42.4401 64.5586 42.6348 63.7461 42.6348C62.9336 42.6348 62.2734 42.4062 61.7656 41.9492C61.2578 41.4922 61.0039 40.7135 61.0039 39.6133C61.0039 38.8346 61.1393 37.929 61.4102 36.8965C60.9701 37.5566 60.4199 38.2253 59.7598 38.9023C59.0996 39.5794 58.3464 40.1973 57.5 40.7559C56.6536 41.3145 55.7057 41.763 54.6562 42.1016C53.6068 42.457 52.4642 42.6348 51.2285 42.6348C50.6699 42.6348 50.1283 42.5755 49.6035 42.457C49.0957 42.3385 48.6471 42.1354 48.2578 41.8477C47.8685 41.5599 47.5553 41.179 47.3184 40.7051C47.0814 40.2142 46.9629 39.6048 46.9629 38.877C46.9629 38.86 46.9967 38.6061 47.0645 38.1152C47.1322 37.6074 47.3438 36.8203 47.6992 35.7539C48.0716 34.6706 48.6387 33.2741 49.4004 31.5645C50.1621 29.8548 51.237 27.7812 52.625 25.3438C52.9805 24.7005 53.3867 24.2435 53.8438 23.9727C54.3177 23.6849 54.8255 23.541 55.3672 23.541C55.6042 23.541 55.8496 23.5749 56.1035 23.6426C56.3574 23.6934 56.5944 23.7865 56.8145 23.9219C57.0345 24.0404 57.2122 24.2012 57.3477 24.4043C57.4831 24.5905 57.5508 24.8105 57.5508 25.0645C57.5508 25.2337 57.5254 25.3945 57.4746 25.5469C57.39 25.8346 57.2038 26.2155 56.916 26.6895C56.6452 27.1465 56.3236 27.6797 55.9512 28.2891C55.5788 28.8815 55.181 29.5247 54.7578 30.2188C54.3516 30.9128 53.9707 31.6322 53.6152 32.377C53.2598 33.1217 52.9551 33.8835 52.7012 34.6621C52.4473 35.4238 52.3034 36.1686 52.2695 36.8965C52.2695 37.2012 52.3542 37.4805 52.5234 37.7344C52.6927 37.9883 52.972 38.1152 53.3613 38.1152C54.4616 38.1152 55.5111 37.8105 56.5098 37.2012C57.5085 36.5918 58.431 35.8385 59.2773 34.9414C60.1237 34.0273 60.8854 33.054 61.5625 32.0215C62.2565 30.972 62.832 30.0156 63.2891 29.1523C63.6107 28.5768 63.89 27.959 64.127 27.2988C64.3809 26.6387 64.6517 26.0293 64.9395 25.4707C65.2272 24.9121 65.5573 24.4466 65.9297 24.0742C66.3021 23.7018 66.7676 23.5156 67.3262 23.5156C67.9355 23.5156 68.418 23.7103 68.7734 24.0996C69.1289 24.4889 69.3066 24.9544 69.3066 25.4961C69.3066 25.8008 69.1882 26.224 68.9512 26.7656C68.7311 27.2904 68.4434 27.8997 68.0879 28.5938C67.7493 29.2708 67.377 29.9987 66.9707 30.7773C66.5645 31.556 66.1836 32.3516 65.8281 33.1641C65.4896 33.9596 65.2018 34.7467 64.9648 35.5254C64.7448 36.2871 64.6348 36.998 64.6348 37.6582C64.6348 38.2676 65.0072 38.5723 65.752 38.5723C66.2767 38.5723 66.9284 38.4199 67.707 38.1152C68.4857 37.8105 69.2982 37.3874 70.1445 36.8457C71.0078 36.2871 71.8626 35.6354 72.709 34.8906C73.5723 34.1458 74.334 33.3418 74.9941 32.4785L75.248 35.9316Z"/>
<path d="M86.0898 25.877C86.0898 26.4017 86.0306 26.9857 85.9121 27.6289C85.7936 28.2552 85.599 28.8477 85.3281 29.4062C85.0573 29.9648 84.7103 30.4303 84.2871 30.8027C83.8639 31.1751 83.3392 31.3613 82.7129 31.3613C82.3744 31.3613 82.1543 31.3105 82.0527 31.209C81.9681 31.1074 81.9258 30.9297 81.9258 30.6758C81.9258 30.5234 81.9258 30.3034 81.9258 30.0156C81.9427 29.7109 81.9512 29.4232 81.9512 29.1523C81.9512 28.8477 81.9089 28.5938 81.8242 28.3906C81.7396 28.1706 81.528 28.0605 81.1895 28.0605C80.8001 28.0605 80.36 28.2129 79.8691 28.5176C79.3952 28.8053 78.9128 29.1862 78.4219 29.6602C77.9479 30.1341 77.4824 30.6758 77.0254 31.2852C76.5684 31.8776 76.1536 32.487 75.7812 33.1133C75.4258 33.7227 75.138 34.3151 74.918 34.8906C74.7148 35.4661 74.6133 35.957 74.6133 36.3633C74.6133 36.9557 74.8164 37.4212 75.2227 37.7598C75.6458 38.0983 76.2129 38.2676 76.9238 38.2676C77.6855 38.2676 78.498 38.1406 79.3613 37.8867C80.2246 37.6328 81.0794 37.3112 81.9258 36.9219C82.7891 36.5326 83.6185 36.1094 84.4141 35.6523C85.2096 35.1953 85.929 34.7637 86.5723 34.3574C87.2324 33.9342 87.7826 33.5788 88.2227 33.291C88.6628 32.9863 88.9505 32.8001 89.0859 32.7324C89.3568 32.597 89.6107 32.5293 89.8477 32.5293C90.0508 32.5293 90.2201 32.5801 90.3555 32.6816C90.5078 32.7663 90.6263 32.8763 90.7109 33.0117C90.7956 33.1302 90.8548 33.2656 90.8887 33.418C90.9225 33.5534 90.9395 33.6719 90.9395 33.7734C90.9395 33.9258 90.9225 34.112 90.8887 34.332C90.8548 34.5352 90.7279 34.7721 90.5078 35.043C90.4232 35.1445 90.1439 35.4069 89.6699 35.8301C89.2129 36.2363 88.612 36.7188 87.8672 37.2773C87.1393 37.8359 86.293 38.4368 85.3281 39.0801C84.3802 39.7064 83.3561 40.2819 82.2559 40.8066C81.1725 41.3314 80.0469 41.763 78.8789 42.1016C77.7109 42.457 76.5599 42.6348 75.4258 42.6348C74.5625 42.6348 73.7923 42.4993 73.1152 42.2285C72.4551 41.9577 71.8965 41.5938 71.4395 41.1367C70.9824 40.6628 70.6354 40.1126 70.3984 39.4863C70.1615 38.86 70.043 38.1999 70.043 37.5059C70.043 36.7441 70.2207 35.8724 70.5762 34.8906C70.9316 33.8919 71.4225 32.8763 72.0488 31.8438C72.6751 30.8112 73.4115 29.7956 74.2578 28.7969C75.1042 27.7982 76.0182 26.9095 77 26.1309C77.9987 25.3522 79.0312 24.7259 80.0977 24.252C81.181 23.778 82.2728 23.541 83.373 23.541C83.7454 23.541 84.0924 23.5833 84.4141 23.668C84.7526 23.7526 85.0404 23.888 85.2773 24.0742C85.5312 24.2435 85.7259 24.4805 85.8613 24.7852C86.0137 25.0898 86.0898 25.4538 86.0898 25.877Z"/>
<path d="M85.7344 37.9883C86.1406 37.125 86.6061 36.1686 87.1309 35.1191C87.6556 34.0527 88.1803 33.0033 88.7051 31.9707C89.2467 30.9212 89.7546 29.931 90.2285 29C90.7025 28.0521 91.1003 27.248 91.4219 26.5879L99.8008 10.1094C99.9023 9.88932 100.055 9.67773 100.258 9.47461C100.478 9.27148 100.723 9.09375 100.994 8.94141C101.265 8.77214 101.553 8.64518 101.857 8.56055C102.162 8.45898 102.467 8.4082 102.771 8.4082C103.516 8.4082 104.033 8.55208 104.32 8.83984C104.608 9.11068 104.752 9.44922 104.752 9.85547C104.752 10.2279 104.659 10.6257 104.473 11.0488C104.286 11.4551 104.075 11.8359 103.838 12.1914C103.093 13.4609 102.374 14.7474 101.68 16.0508C101.003 17.3372 100.317 18.6406 99.623 19.9609C98.946 21.2643 98.2604 22.5677 97.5664 23.8711C96.8724 25.1576 96.1445 26.4355 95.3828 27.7051C95.8568 27.248 96.3561 26.7741 96.8809 26.2832C97.4225 25.7923 98.0065 25.3438 98.6328 24.9375C99.2591 24.5312 99.9447 24.2012 100.689 23.9473C101.434 23.6764 102.264 23.541 103.178 23.541C103.719 23.541 104.236 23.5918 104.727 23.6934C105.217 23.7949 105.649 23.9642 106.021 24.2012C106.394 24.4212 106.69 24.7344 106.91 25.1406C107.13 25.5299 107.24 26.0124 107.24 26.5879C107.24 27.3496 107.122 28.0521 106.885 28.6953C106.665 29.3216 106.377 29.9225 106.021 30.498C105.666 31.0566 105.277 31.5983 104.854 32.123C104.43 32.6309 104.024 33.1556 103.635 33.6973C103.262 34.222 102.932 34.7721 102.645 35.3477C102.374 35.9232 102.204 36.5495 102.137 37.2266C102.137 37.2604 102.128 37.2943 102.111 37.3281C102.111 37.362 102.111 37.3958 102.111 37.4297C102.111 37.7682 102.221 37.9798 102.441 38.0645C102.678 38.1491 102.975 38.1914 103.33 38.1914C103.787 38.1914 104.278 38.1068 104.803 37.9375C105.327 37.7513 105.852 37.5143 106.377 37.2266C106.919 36.9219 107.452 36.5833 107.977 36.2109C108.518 35.8385 109.026 35.4577 109.5 35.0684C109.991 34.679 110.439 34.3066 110.846 33.9512C111.252 33.5788 111.599 33.2572 111.887 32.9863C112.039 32.8509 112.2 32.7493 112.369 32.6816C112.538 32.6139 112.699 32.5801 112.852 32.5801C113.156 32.5801 113.41 32.6986 113.613 32.9355C113.833 33.1556 113.943 33.4603 113.943 33.8496C113.943 34.2051 113.816 34.6113 113.562 35.0684C113.326 35.5254 112.911 35.9824 112.318 36.4395C111.387 37.252 110.439 38.0306 109.475 38.7754C108.51 39.5202 107.536 40.1803 106.555 40.7559C105.573 41.3314 104.591 41.7884 103.609 42.127C102.645 42.4655 101.697 42.6348 100.766 42.6348C99.5638 42.6348 98.599 42.3639 97.8711 41.8223C97.1432 41.2637 96.7793 40.3919 96.7793 39.207C96.7793 38.3438 96.9232 37.5312 97.2109 36.7695C97.5156 35.9909 97.8796 35.2461 98.3027 34.5352C98.7428 33.8073 99.2083 33.1133 99.6992 32.4531C100.19 31.776 100.622 31.1159 100.994 30.4727C101.197 30.1849 101.35 29.9225 101.451 29.6855C101.57 29.4316 101.629 29.1608 101.629 28.873C101.629 28.6191 101.561 28.416 101.426 28.2637C101.29 28.0944 101.079 28.0098 100.791 28.0098C99.7923 28.0098 98.8698 28.2552 98.0234 28.7461C97.1771 29.237 96.3984 29.8633 95.6875 30.625C94.9766 31.3867 94.3164 32.2246 93.707 33.1387C93.0977 34.0358 92.5306 34.8991 92.0059 35.7285C91.7689 36.1009 91.5234 36.5326 91.2695 37.0234C91.0326 37.4974 90.7786 37.9883 90.5078 38.4961C90.2539 39.0039 89.9831 39.5117 89.6953 40.0195C89.4076 40.5104 89.1029 40.9505 88.7812 41.3398C88.4766 41.7292 88.1465 42.0423 87.791 42.2793C87.4525 42.5163 87.097 42.6348 86.7246 42.6348C86.1322 42.6348 85.6751 42.457 85.3535 42.1016C85.0319 41.763 84.8711 41.3314 84.8711 40.8066C84.8711 40.4173 84.9388 40.0111 85.0742 39.5879C85.2096 39.1478 85.4297 38.6146 85.7344 37.9883Z"/>
<path d="M112.166 29.584C112.691 28.416 113.122 27.4766 113.461 26.7656C113.799 26.0378 114.104 25.4792 114.375 25.0898C114.663 24.6836 114.942 24.4128 115.213 24.2773C115.501 24.1419 115.856 24.0742 116.279 24.0742C116.923 24.0742 117.473 24.2858 117.93 24.709C118.404 25.1152 118.641 25.64 118.641 26.2832C118.641 26.4355 118.615 26.5879 118.564 26.7402C118.531 26.8926 118.48 27.0449 118.412 27.1973L114.096 37.4043C114.028 37.5397 113.977 37.6921 113.943 37.8613C113.926 38.0137 113.918 38.1406 113.918 38.2422C113.918 38.4622 113.96 38.6315 114.045 38.75C114.146 38.8516 114.248 38.9023 114.35 38.9023C114.536 38.9023 114.722 38.86 114.908 38.7754C115.111 38.6908 115.34 38.5469 115.594 38.3438C115.865 38.1237 116.186 37.8359 116.559 37.4805C116.948 37.1081 117.422 36.6426 117.98 36.084C118.505 35.5254 119.047 34.8568 119.605 34.0781C120.164 33.2826 120.706 32.4531 121.23 31.5898C121.772 30.7096 122.271 29.8294 122.729 28.9492C123.186 28.0521 123.583 27.2227 123.922 26.4609C124.176 25.9531 124.404 25.5469 124.607 25.2422C124.811 24.9206 125.005 24.6751 125.191 24.5059C125.395 24.3366 125.598 24.2266 125.801 24.1758C126.004 24.1081 126.241 24.0742 126.512 24.0742C127.544 24.0742 128.061 24.5228 128.061 25.4199C128.027 25.5553 128.001 25.7077 127.984 25.877C127.984 26.0462 127.942 26.2409 127.857 26.4609L123.896 38.166C123.896 38.5892 124.108 38.8008 124.531 38.8008C124.836 38.7669 125.234 38.6146 125.725 38.3438C126.232 38.056 126.74 37.7005 127.248 37.2773C127.756 36.8372 128.23 36.3379 128.67 35.7793C129.11 35.2038 129.432 34.6113 129.635 34.002C130.007 32.8848 130.38 31.7591 130.752 30.625C131.141 29.4909 131.548 28.4668 131.971 27.5527C132.411 26.6217 132.876 25.86 133.367 25.2676C133.875 24.6582 134.434 24.3281 135.043 24.2773C135.585 24.2773 136.025 24.4551 136.363 24.8105C136.719 25.1491 136.896 25.5977 136.896 26.1562C136.896 26.8164 136.803 27.5273 136.617 28.2891C136.448 29.0508 136.219 29.8125 135.932 30.5742C135.644 31.3359 135.297 32.0723 134.891 32.7832C134.501 33.4941 134.095 34.1374 133.672 34.7129C133.79 35.0684 134.036 35.2461 134.408 35.2461C135.068 35.2461 135.686 35.1953 136.262 35.0938C136.854 34.9922 137.421 34.8483 137.963 34.6621C138.521 34.459 139.072 34.222 139.613 33.9512C140.172 33.6803 140.747 33.3672 141.34 33.0117C141.611 32.8255 141.882 32.7324 142.152 32.7324C142.491 32.7324 142.796 32.8594 143.066 33.1133C143.337 33.3672 143.473 33.6973 143.473 34.1035C143.473 34.4759 143.303 34.8568 142.965 35.2461C142.643 35.6354 142.212 36.0163 141.67 36.3887C141.128 36.7611 140.51 37.1081 139.816 37.4297C139.139 37.7513 138.445 38.0391 137.734 38.293C137.04 38.5299 136.363 38.7246 135.703 38.877C135.06 39.0124 134.493 39.0801 134.002 39.0801C133.054 39.0801 132.081 38.8092 131.082 38.2676C129.897 39.6895 128.661 40.7728 127.375 41.5176C126.105 42.2624 124.811 42.6348 123.49 42.6348C122.271 42.6348 121.391 42.3216 120.85 41.6953C120.325 41.0521 120.062 40.1211 120.062 38.9023C118.793 40.1888 117.6 41.1367 116.482 41.7461C115.382 42.3385 114.248 42.6348 113.08 42.6348C112.335 42.6348 111.709 42.5417 111.201 42.3555C110.71 42.1862 110.312 41.9408 110.008 41.6191C109.703 41.2975 109.483 40.9251 109.348 40.502C109.229 40.0618 109.17 39.5879 109.17 39.0801C109.17 38.2507 109.288 37.3789 109.525 36.4648C109.762 35.5339 110.042 34.6367 110.363 33.7734C110.702 32.9102 111.032 32.1146 111.354 31.3867C111.692 30.6419 111.963 30.041 112.166 29.584Z"/>
<path d="M149.643 28.0098C148.847 28.0098 148.077 28.2129 147.332 28.6191C146.604 29.0085 145.952 29.5332 145.377 30.1934C144.818 30.8366 144.37 31.5729 144.031 32.4023C143.693 33.2148 143.523 34.0527 143.523 34.916C143.523 35.2376 143.549 35.5931 143.6 35.9824C143.65 36.3548 143.752 36.7103 143.904 37.0488C144.074 37.3704 144.311 37.6413 144.615 37.8613C144.92 38.0814 145.326 38.1914 145.834 38.1914C146.613 38.1914 147.366 37.9883 148.094 37.582C148.839 37.1589 149.499 36.6172 150.074 35.957C150.65 35.2799 151.107 34.5182 151.445 33.6719C151.784 32.8255 151.953 31.9707 151.953 31.1074C151.953 30.7689 151.928 30.4219 151.877 30.0664C151.843 29.694 151.742 29.3555 151.572 29.0508C151.42 28.7461 151.191 28.5007 150.887 28.3145C150.582 28.1113 150.167 28.0098 149.643 28.0098ZM150.963 23.541C151.606 23.541 152.292 23.6257 153.02 23.7949C153.764 23.9642 154.45 24.252 155.076 24.6582C155.702 25.0645 156.219 25.6061 156.625 26.2832C157.048 26.9434 157.26 27.7643 157.26 28.7461C157.26 29.2539 157.192 29.8379 157.057 30.498C156.921 31.1413 156.718 31.8184 156.447 32.5293C156.617 32.7324 156.811 32.8763 157.031 32.9609C157.251 33.0456 157.488 33.0879 157.742 33.0879C158.098 33.0879 158.487 32.9863 158.91 32.7832C159.35 32.5801 159.799 32.3177 160.256 31.9961C160.713 31.6745 161.17 31.3105 161.627 30.9043C162.084 30.498 162.516 30.0918 162.922 29.6855C163.328 29.2793 163.692 28.8984 164.014 28.543C164.352 28.1706 164.632 27.8574 164.852 27.6035C164.97 27.485 165.114 27.4258 165.283 27.4258C165.52 27.4258 165.732 27.5527 165.918 27.8066C166.104 28.0436 166.197 28.3822 166.197 28.8223C166.197 29.2624 166.062 29.7702 165.791 30.3457C165.537 30.9212 165.055 31.5221 164.344 32.1484C163.938 32.5885 163.472 33.0964 162.947 33.6719C162.423 34.2474 161.864 34.7891 161.271 35.2969C160.679 35.8047 160.061 36.2363 159.418 36.5918C158.775 36.9473 158.132 37.125 157.488 37.125C157.048 37.125 156.617 37.0573 156.193 36.9219C155.787 36.7865 155.372 36.5664 154.949 36.2617C154.34 37.2096 153.646 38.0729 152.867 38.8516C152.089 39.6302 151.217 40.2988 150.252 40.8574C149.304 41.416 148.271 41.8477 147.154 42.1523C146.054 42.474 144.878 42.6348 143.625 42.6348C143.151 42.6348 142.601 42.5417 141.975 42.3555C141.348 42.1693 140.747 41.8646 140.172 41.4414C139.613 41.0013 139.139 40.4342 138.75 39.7402C138.361 39.0462 138.166 38.1999 138.166 37.2012C138.166 36.5241 138.276 35.7116 138.496 34.7637C138.716 33.8158 139.046 32.8424 139.486 31.8438C139.943 30.8281 140.51 29.8294 141.188 28.8477C141.882 27.849 142.702 26.9603 143.65 26.1816C144.598 25.3861 145.682 24.7513 146.9 24.2773C148.119 23.7865 149.473 23.541 150.963 23.541Z"/>
<path d="M171.174 28.0098C170.378 28.0098 169.608 28.2129 168.863 28.6191C168.135 29.0085 167.484 29.5332 166.908 30.1934C166.35 30.8366 165.901 31.5729 165.562 32.4023C165.224 33.2148 165.055 34.0527 165.055 34.916C165.055 35.2376 165.08 35.5931 165.131 35.9824C165.182 36.3548 165.283 36.7103 165.436 37.0488C165.605 37.3704 165.842 37.6413 166.146 37.8613C166.451 38.0814 166.857 38.1914 167.365 38.1914C168.144 38.1914 168.897 37.9883 169.625 37.582C170.37 37.1589 171.03 36.6172 171.605 35.957C172.181 35.2799 172.638 34.5182 172.977 33.6719C173.315 32.8255 173.484 31.9707 173.484 31.1074C173.484 30.7689 173.459 30.4219 173.408 30.0664C173.374 29.694 173.273 29.3555 173.104 29.0508C172.951 28.7461 172.723 28.5007 172.418 28.3145C172.113 28.1113 171.699 28.0098 171.174 28.0098ZM172.494 23.541C173.137 23.541 173.823 23.6257 174.551 23.7949C175.296 23.9642 175.981 24.252 176.607 24.6582C177.234 25.0645 177.75 25.6061 178.156 26.2832C178.579 26.9434 178.791 27.7643 178.791 28.7461C178.791 29.2539 178.723 29.8379 178.588 30.498C178.452 31.1413 178.249 31.8184 177.979 32.5293C178.148 32.7324 178.342 32.8763 178.562 32.9609C178.783 33.0456 179.02 33.0879 179.273 33.0879C179.629 33.0879 180.018 32.9863 180.441 32.7832C180.882 32.5801 181.33 32.3177 181.787 31.9961C182.244 31.6745 182.701 31.3105 183.158 30.9043C183.615 30.498 184.047 30.0918 184.453 29.6855C184.859 29.2793 185.223 28.8984 185.545 28.543C185.883 28.1706 186.163 27.8574 186.383 27.6035C186.501 27.485 186.645 27.4258 186.814 27.4258C187.051 27.4258 187.263 27.5527 187.449 27.8066C187.635 28.0436 187.729 28.3822 187.729 28.8223C187.729 29.2624 187.593 29.7702 187.322 30.3457C187.068 30.9212 186.586 31.5221 185.875 32.1484C185.469 32.5885 185.003 33.0964 184.479 33.6719C183.954 34.2474 183.395 34.7891 182.803 35.2969C182.21 35.8047 181.592 36.2363 180.949 36.5918C180.306 36.9473 179.663 37.125 179.02 37.125C178.579 37.125 178.148 37.0573 177.725 36.9219C177.318 36.7865 176.904 36.5664 176.48 36.2617C175.871 37.2096 175.177 38.0729 174.398 38.8516C173.62 39.6302 172.748 40.2988 171.783 40.8574C170.835 41.416 169.803 41.8477 168.686 42.1523C167.585 42.474 166.409 42.6348 165.156 42.6348C164.682 42.6348 164.132 42.5417 163.506 42.3555C162.88 42.1693 162.279 41.8646 161.703 41.4414C161.145 41.0013 160.671 40.4342 160.281 39.7402C159.892 39.0462 159.697 38.1999 159.697 37.2012C159.697 36.5241 159.807 35.7116 160.027 34.7637C160.247 33.8158 160.577 32.8424 161.018 31.8438C161.475 30.8281 162.042 29.8294 162.719 28.8477C163.413 27.849 164.234 26.9603 165.182 26.1816C166.13 25.3861 167.213 24.7513 168.432 24.2773C169.65 23.7865 171.005 23.541 172.494 23.541Z"/>
<path d="M198.443 36.8457C198.426 36.8796 198.418 36.9219 198.418 36.9727C198.418 37.0234 198.41 37.0658 198.393 37.0996C198.393 37.4043 198.469 37.7259 198.621 38.0645C198.773 38.3861 199.019 38.5469 199.357 38.5469C199.493 38.5469 199.594 38.5299 199.662 38.4961C200.627 38.2083 201.6 37.7513 202.582 37.125C203.581 36.4987 204.537 35.8132 205.451 35.0684C206.365 34.3236 207.203 33.5618 207.965 32.7832C208.743 32.0046 209.387 31.3105 209.895 30.7012C210.132 30.4134 210.394 30.2695 210.682 30.2695C210.936 30.2695 211.156 30.388 211.342 30.625C211.545 30.862 211.646 31.1836 211.646 31.5898C211.646 31.9115 211.553 32.2923 211.367 32.7324C211.198 33.1725 210.91 33.6465 210.504 34.1543C209.505 35.2546 208.481 36.3125 207.432 37.3281C206.382 38.3438 205.324 39.2493 204.258 40.0449C203.191 40.8236 202.125 41.4499 201.059 41.9238C200.009 42.3978 198.977 42.6348 197.961 42.6348C196.725 42.6348 195.752 42.2878 195.041 41.5938C194.33 40.8828 193.975 39.8249 193.975 38.4199C193.975 38.3353 193.975 38.2507 193.975 38.166C193.975 38.0645 193.983 37.9714 194 37.8867C193.611 38.5977 193.111 39.2493 192.502 39.8418C191.893 40.4173 191.224 40.9167 190.496 41.3398C189.768 41.7461 189.015 42.0592 188.236 42.2793C187.458 42.5163 186.704 42.6348 185.977 42.6348C185.35 42.6348 184.775 42.5501 184.25 42.3809C183.725 42.2116 183.268 41.9408 182.879 41.5684C182.507 41.196 182.21 40.722 181.99 40.1465C181.787 39.571 181.686 38.877 181.686 38.0645C181.686 36.6426 181.906 35.2969 182.346 34.0273C182.786 32.7409 183.37 31.5645 184.098 30.498C184.826 29.4147 185.655 28.4499 186.586 27.6035C187.534 26.7402 188.507 26.0124 189.506 25.4199C190.521 24.8105 191.529 24.3451 192.527 24.0234C193.526 23.7018 194.44 23.541 195.27 23.541C196.234 23.541 197.064 23.7018 197.758 24.0234C198.096 24.1927 198.41 24.4212 198.697 24.709C198.765 24.5566 198.833 24.4128 198.9 24.2773C199.07 23.8711 199.222 23.5241 199.357 23.2363C199.493 22.9316 199.586 22.7116 199.637 22.5762C199.688 22.4238 199.831 22.0684 200.068 21.5098C200.305 20.9512 200.576 20.2995 200.881 19.5547C201.202 18.793 201.541 17.9805 201.896 17.1172C202.269 16.2539 202.607 15.4414 202.912 14.6797C203.217 13.918 203.479 13.2663 203.699 12.7246C203.919 12.166 204.055 11.8105 204.105 11.6582C204.224 11.235 204.385 10.8288 204.588 10.4395C204.791 10.0332 205.028 9.6862 205.299 9.39844C205.587 9.09375 205.917 8.85677 206.289 8.6875C206.661 8.5013 207.085 8.4082 207.559 8.4082C208.202 8.4082 208.735 8.55208 209.158 8.83984C209.581 9.11068 209.793 9.64388 209.793 10.4395C209.793 10.7611 209.751 11.0911 209.666 11.4297C209.581 11.7682 209.48 12.0983 209.361 12.4199C209.26 12.7415 209.141 13.0632 209.006 13.3848C208.887 13.6895 208.777 13.9772 208.676 14.248C207.829 15.9408 206.941 17.7858 206.01 19.7832C205.079 21.7637 204.156 23.7611 203.242 25.7754C202.328 27.7897 201.456 29.7533 200.627 31.666C199.798 33.5788 199.07 35.3053 198.443 36.8457ZM197.682 26.918C196.666 26.9518 195.6 27.1719 194.482 27.5781C193.196 28.0182 192.02 28.6784 190.953 29.5586C189.887 30.4219 188.981 31.4883 188.236 32.7578C187.508 34.0273 187.094 35.4831 186.992 37.125C186.992 37.8021 187.28 38.1406 187.855 38.1406C188.566 38.1406 189.243 37.9967 189.887 37.709C190.53 37.4043 191.139 37.0065 191.715 36.5156C192.307 36.0078 192.857 35.4323 193.365 34.7891C193.873 34.1458 194.339 33.4772 194.762 32.7832C195.202 32.0892 195.591 31.4036 195.93 30.7266C196.285 30.0326 196.59 29.3893 196.844 28.7969C196.928 28.6107 197.047 28.3483 197.199 28.0098C197.335 27.6882 197.495 27.3242 197.682 26.918Z"/>
<path d="M236.834 41.7969C235.717 41.6784 234.718 41.6022 233.838 41.5684C232.975 41.5176 232.162 41.4922 231.4 41.4922C230.893 41.4922 230.393 41.5007 229.902 41.5176C229.428 41.5345 228.946 41.5514 228.455 41.5684C227.981 41.5684 227.482 41.5768 226.957 41.5938C226.449 41.6107 225.908 41.6191 225.332 41.6191C224.773 41.6191 224.342 41.4583 224.037 41.1367C223.732 40.8151 223.58 40.4173 223.58 39.9434C223.58 39.7572 223.605 39.5625 223.656 39.3594C223.707 39.1901 223.902 39.0124 224.24 38.8262C224.596 38.623 225.053 38.4368 225.611 38.2676C226.187 38.0814 226.855 37.9206 227.617 37.7852C228.379 37.6497 229.191 37.5482 230.055 37.4805C230.935 35.5677 231.849 33.638 232.797 31.6914C233.762 29.7279 234.727 27.8236 235.691 25.9785C236.656 24.1165 237.596 22.3392 238.51 20.6465C239.424 18.9538 240.279 17.4134 241.074 16.0254C241.87 14.6204 242.581 13.4017 243.207 12.3691C243.85 11.3366 244.375 10.5495 244.781 10.0078C243.918 10.194 243.08 10.3971 242.268 10.6172C241.455 10.8203 240.541 11.0234 239.525 11.2266C239.322 11.2943 239.119 11.3281 238.916 11.3281C238.425 11.3281 238.044 11.1589 237.773 10.8203C237.503 10.4648 237.367 10.0417 237.367 9.55078C237.367 9.33073 237.562 9.07682 237.951 8.78906C238.357 8.48438 238.908 8.17969 239.602 7.875C240.312 7.55339 241.142 7.2487 242.09 6.96094C243.055 6.65625 244.096 6.38542 245.213 6.14844C246.347 5.91146 247.532 5.72526 248.768 5.58984C250.02 5.4375 251.281 5.36133 252.551 5.36133C253.736 5.36133 254.658 5.48828 255.318 5.74219C255.995 5.97917 256.334 6.39388 256.334 6.98633C256.334 7.27409 256.249 7.57031 256.08 7.875C255.911 8.16276 255.682 8.42513 255.395 8.66211C255.124 8.89909 254.794 9.09375 254.404 9.24609C254.015 9.38151 253.609 9.44922 253.186 9.44922C252.949 9.44922 252.729 9.44076 252.525 9.42383C252.322 9.38997 252.102 9.37305 251.865 9.37305C251.239 9.37305 250.655 9.38997 250.113 9.42383C249.572 9.44076 249.055 9.46615 248.564 9.5C248.598 9.66927 248.615 9.79622 248.615 9.88086C248.615 10.1178 248.573 10.3464 248.488 10.5664C248.404 10.7695 248.319 10.9642 248.234 11.1504C247.71 12.2507 247.075 13.5794 246.33 15.1367C245.585 16.6771 244.79 18.319 243.943 20.0625C243.097 21.806 242.234 23.5749 241.354 25.3691C240.49 27.1634 239.669 28.8561 238.891 30.4473C238.112 32.0384 237.41 33.4603 236.783 34.7129C236.157 35.9486 235.683 36.888 235.361 37.5312C236.309 37.6159 237.181 37.7344 237.977 37.8867C238.772 38.0221 239.449 38.1999 240.008 38.4199C240.583 38.623 241.032 38.8685 241.354 39.1562C241.675 39.444 241.836 39.7656 241.836 40.1211C241.836 40.375 241.751 40.6289 241.582 40.8828C241.413 41.1198 241.193 41.3398 240.922 41.543C240.651 41.7292 240.346 41.8815 240.008 42C239.669 42.1016 239.322 42.1523 238.967 42.1523C238.577 42.1523 238.205 42.1016 237.85 42C237.511 41.8984 237.173 41.8307 236.834 41.7969Z"/>
<path d="M251.129 26.5879C251.467 25.86 251.891 25.3184 252.398 24.9629C252.906 24.6074 253.406 24.4297 253.896 24.4297C254.303 24.4297 254.667 24.582 254.988 24.8867C255.31 25.1745 255.471 25.6061 255.471 26.1816C255.471 26.4017 255.445 26.6387 255.395 26.8926C255.344 27.1465 255.251 27.4173 255.115 27.7051C255.488 27.2311 256.021 26.7487 256.715 26.2578C257.409 25.75 258.171 25.3014 259 24.9121C259.846 24.5059 260.71 24.1758 261.59 23.9219C262.487 23.668 263.333 23.541 264.129 23.541C265.026 23.541 265.771 23.7611 266.363 24.2012C266.973 24.6243 267.277 25.3522 267.277 26.3848C267.277 26.9941 267.184 27.6289 266.998 28.2891C266.812 28.9492 266.566 29.6094 266.262 30.2695C265.974 30.9297 265.644 31.5814 265.271 32.2246C264.916 32.8509 264.561 33.4434 264.205 34.002C263.85 34.5605 263.52 35.0768 263.215 35.5508C262.927 36.0078 262.699 36.3887 262.529 36.6934C262.309 36.9642 262.199 37.2773 262.199 37.6328C262.199 37.7682 262.242 37.8867 262.326 37.9883C262.411 38.0898 262.546 38.1406 262.732 38.1406C262.851 38.1406 262.986 38.1322 263.139 38.1152C263.291 38.0814 263.477 37.9883 263.697 37.8359C264.611 37.4974 265.542 37.0742 266.49 36.5664C267.455 36.0586 268.378 35.5254 269.258 34.9668C270.138 34.3913 270.942 33.8242 271.67 33.2656C272.415 32.6901 273.033 32.1738 273.523 31.7168C273.659 31.5983 273.794 31.5137 273.93 31.4629C274.065 31.4121 274.192 31.3867 274.311 31.3867C274.598 31.3867 274.818 31.4967 274.971 31.7168C275.14 31.9368 275.225 32.2161 275.225 32.5547C275.225 33.0794 275.055 33.6634 274.717 34.3066C274.395 34.9499 273.879 35.5508 273.168 36.1094C272.203 36.8034 271.314 37.4382 270.502 38.0137C269.706 38.5892 268.885 39.1309 268.039 39.6387C267.21 40.1296 266.312 40.5951 265.348 41.0352C264.4 41.4583 263.283 41.8561 261.996 42.2285C261.556 42.3639 261.15 42.4655 260.777 42.5332C260.422 42.6009 260.092 42.6348 259.787 42.6348C258.89 42.6348 258.23 42.3893 257.807 41.8984C257.4 41.3906 257.197 40.6882 257.197 39.791C257.197 39.6725 257.197 39.5625 257.197 39.4609C257.214 39.3424 257.231 39.2155 257.248 39.0801C257.282 38.5553 257.417 37.9798 257.654 37.3535C257.908 36.7272 258.204 36.084 258.543 35.4238C258.898 34.7637 259.271 34.112 259.66 33.4688C260.049 32.8086 260.405 32.1908 260.727 31.6152C261.065 31.0228 261.344 30.498 261.564 30.041C261.785 29.584 261.895 29.2116 261.895 28.9238C261.895 28.6699 261.818 28.4583 261.666 28.2891C261.531 28.1029 261.319 28.0098 261.031 28.0098C259.948 28.0098 258.915 28.3314 257.934 28.9746C256.969 29.6178 256.063 30.4134 255.217 31.3613C254.37 32.2923 253.592 33.2826 252.881 34.332C252.17 35.3815 251.544 36.321 251.002 37.1504C250.663 37.709 250.35 38.3099 250.062 38.9531C249.792 39.5794 249.504 40.1719 249.199 40.7305C248.895 41.2721 248.548 41.7207 248.158 42.0762C247.786 42.4486 247.312 42.6348 246.736 42.6348C246.144 42.6348 245.678 42.4486 245.34 42.0762C245.001 41.7038 244.832 41.2467 244.832 40.7051C244.832 40.4173 244.951 39.9518 245.188 39.3086C245.424 38.6654 245.729 37.9206 246.102 37.0742C246.474 36.2279 246.889 35.3223 247.346 34.3574C247.82 33.3757 248.285 32.4108 248.742 31.4629C249.216 30.498 249.665 29.5924 250.088 28.7461C250.511 27.8997 250.858 27.1803 251.129 26.5879Z"/>
<path d="M285.559 25.877C285.559 26.4017 285.499 26.9857 285.381 27.6289C285.262 28.2552 285.068 28.8477 284.797 29.4062C284.526 29.9648 284.179 30.4303 283.756 30.8027C283.333 31.1751 282.808 31.3613 282.182 31.3613C281.843 31.3613 281.623 31.3105 281.521 31.209C281.437 31.1074 281.395 30.9297 281.395 30.6758C281.395 30.5234 281.395 30.3034 281.395 30.0156C281.411 29.7109 281.42 29.4232 281.42 29.1523C281.42 28.8477 281.378 28.5938 281.293 28.3906C281.208 28.1706 280.997 28.0605 280.658 28.0605C280.269 28.0605 279.829 28.2129 279.338 28.5176C278.864 28.8053 278.382 29.1862 277.891 29.6602C277.417 30.1341 276.951 30.6758 276.494 31.2852C276.037 31.8776 275.622 32.487 275.25 33.1133C274.895 33.7227 274.607 34.3151 274.387 34.8906C274.184 35.4661 274.082 35.957 274.082 36.3633C274.082 36.9557 274.285 37.4212 274.691 37.7598C275.115 38.0983 275.682 38.2676 276.393 38.2676C277.154 38.2676 277.967 38.1406 278.83 37.8867C279.693 37.6328 280.548 37.3112 281.395 36.9219C282.258 36.5326 283.087 36.1094 283.883 35.6523C284.678 35.1953 285.398 34.7637 286.041 34.3574C286.701 33.9342 287.251 33.5788 287.691 33.291C288.132 32.9863 288.419 32.8001 288.555 32.7324C288.826 32.597 289.079 32.5293 289.316 32.5293C289.52 32.5293 289.689 32.5801 289.824 32.6816C289.977 32.7663 290.095 32.8763 290.18 33.0117C290.264 33.1302 290.324 33.2656 290.357 33.418C290.391 33.5534 290.408 33.6719 290.408 33.7734C290.408 33.9258 290.391 34.112 290.357 34.332C290.324 34.5352 290.197 34.7721 289.977 35.043C289.892 35.1445 289.613 35.4069 289.139 35.8301C288.682 36.2363 288.081 36.7188 287.336 37.2773C286.608 37.8359 285.762 38.4368 284.797 39.0801C283.849 39.7064 282.825 40.2819 281.725 40.8066C280.641 41.3314 279.516 41.763 278.348 42.1016C277.18 42.457 276.029 42.6348 274.895 42.6348C274.031 42.6348 273.261 42.4993 272.584 42.2285C271.924 41.9577 271.365 41.5938 270.908 41.1367C270.451 40.6628 270.104 40.1126 269.867 39.4863C269.63 38.86 269.512 38.1999 269.512 37.5059C269.512 36.7441 269.689 35.8724 270.045 34.8906C270.4 33.8919 270.891 32.8763 271.518 31.8438C272.144 30.8112 272.88 29.7956 273.727 28.7969C274.573 27.7982 275.487 26.9095 276.469 26.1309C277.467 25.3522 278.5 24.7259 279.566 24.252C280.65 23.778 281.742 23.541 282.842 23.541C283.214 23.541 283.561 23.5833 283.883 23.668C284.221 23.7526 284.509 23.888 284.746 24.0742C285 24.2435 285.195 24.4805 285.33 24.7852C285.482 25.0898 285.559 25.4538 285.559 25.877Z"/>
</mask>
<path d="M12.457 40.8066C12.2031 41.3145 11.8984 41.763 11.543 42.1523C11.1875 42.5417 10.8066 42.8633 10.4004 43.1172C9.99414 43.3711 9.57943 43.5573 9.15625 43.6758C8.73307 43.8112 8.33529 43.8789 7.96289 43.8789C7.42122 43.8789 6.96419 43.735 6.5918 43.4473C6.2194 43.1764 6.0332 42.7702 6.0332 42.2285C6.0332 42.0423 6.05013 41.8392 6.08398 41.6191C6.13477 41.3822 6.22786 41.1283 6.36328 40.8574C7.64974 38.1999 8.92773 35.6439 10.1973 33.1895C11.4837 30.735 12.7194 28.4414 13.9043 26.3086C15.1061 24.1758 16.2402 22.2376 17.3066 20.4941C18.373 18.7337 19.3379 17.2357 20.2012 16C21.0814 14.7474 21.8262 13.7826 22.4355 13.1055C23.0618 12.4284 23.5189 12.0898 23.8066 12.0898C24.3991 12.0898 24.8392 12.2591 25.127 12.5977C25.4147 12.9362 25.5586 13.334 25.5586 13.791C25.5586 14.1634 25.4655 14.5358 25.2793 14.9082C24.8561 15.7715 24.3737 16.7533 23.832 17.8535C23.3073 18.9368 22.7487 20.0964 22.1562 21.332C21.5638 22.5508 20.946 23.8203 20.3027 25.1406C19.6595 26.444 19.0247 27.7474 18.3984 29.0508C17.7721 30.3372 17.1543 31.5898 16.5449 32.8086C15.9525 34.0104 15.3939 35.1276 14.8691 36.1602C14.3613 37.1927 13.8958 38.1152 13.4727 38.9277C13.0664 39.7233 12.7279 40.3496 12.457 40.8066ZM42.1387 11.0996C42.1387 11.4043 42.0202 11.8359 41.7832 12.3945C41.5632 12.9362 41.2415 13.4694 40.8184 13.9941C40.4121 14.5189 39.9128 14.9759 39.3203 15.3652C38.7448 15.7546 38.1016 15.9492 37.3906 15.9492C37.2214 15.9492 37.0098 15.9408 36.7559 15.9238C36.502 15.89 36.248 15.8223 35.9941 15.7207C35.7572 15.6191 35.554 15.4753 35.3848 15.2891C35.2155 15.1029 35.1309 14.8574 35.1309 14.5527C35.1309 14.4004 35.207 14.1888 35.3594 13.918C35.5117 13.6302 35.6725 13.3255 35.8418 13.0039C36.028 12.6823 36.1973 12.3691 36.3496 12.0645C36.502 11.7598 36.5781 11.5059 36.5781 11.3027C36.5781 10.7272 36.1719 10.3125 35.3594 10.0586C34.5469 9.78776 33.1842 9.65234 31.2715 9.65234C29.3587 9.72005 27.6322 9.83854 26.0918 10.0078C24.5514 10.1602 23.1296 10.3633 21.8262 10.6172C20.5228 10.8542 19.304 11.1335 18.1699 11.4551C17.0358 11.7767 15.9186 12.1237 14.8184 12.4961C13.7181 12.8516 12.6009 13.2409 11.4668 13.6641C10.3496 14.0703 9.15625 14.485 7.88672 14.9082C7.76823 14.9421 7.64974 14.9759 7.53125 15.0098C7.42969 15.0436 7.33659 15.0605 7.25195 15.0605C6.98112 15.0605 6.73568 15.0013 6.51562 14.8828C6.29557 14.7643 6.10091 14.6035 5.93164 14.4004C5.7793 14.1973 5.65234 13.9688 5.55078 13.7148C5.46615 13.4609 5.42383 13.1986 5.42383 12.9277C5.42383 12.4876 5.7793 11.9967 6.49023 11.4551C7.20117 10.8965 8.17448 10.3379 9.41016 9.7793C10.6458 9.2207 12.1016 8.67904 13.7773 8.1543C15.4531 7.61263 17.2559 7.13867 19.1855 6.73242C21.1322 6.30924 23.1549 5.97917 25.2539 5.74219C27.3698 5.48828 29.4772 5.36133 31.5762 5.36133C33.3874 5.36133 34.9531 5.50521 36.2734 5.79297C37.5938 6.08073 38.6855 6.47852 39.5488 6.98633C40.4121 7.49414 41.0553 8.10352 41.4785 8.81445C41.9017 9.50846 42.1217 10.2702 42.1387 11.0996Z" stroke="#FF513B" stroke-width="10" mask="url(#path-1-outside-1)"/>
<path d="M36.4004 28.0098C35.6048 28.0098 34.8346 28.2129 34.0898 28.6191C33.362 29.0085 32.7103 29.5332 32.1348 30.1934C31.5762 30.8366 31.1276 31.5729 30.7891 32.4023C30.4505 33.2148 30.2812 34.0527 30.2812 34.916C30.2812 35.2376 30.3066 35.5931 30.3574 35.9824C30.4082 36.3548 30.5098 36.7103 30.6621 37.0488C30.8314 37.3704 31.0684 37.6413 31.373 37.8613C31.6777 38.0814 32.084 38.1914 32.5918 38.1914C33.3704 38.1914 34.1237 37.9883 34.8516 37.582C35.5964 37.1589 36.2565 36.6172 36.832 35.957C37.4076 35.2799 37.8646 34.5182 38.2031 33.6719C38.5417 32.8255 38.7109 31.9707 38.7109 31.1074C38.7109 30.7689 38.6855 30.4219 38.6348 30.0664C38.6009 29.694 38.4993 29.3555 38.3301 29.0508C38.1777 28.7461 37.9492 28.5007 37.6445 28.3145C37.3398 28.1113 36.9251 28.0098 36.4004 28.0098ZM37.7207 23.541C38.3639 23.541 39.0495 23.6257 39.7773 23.7949C40.5221 23.9642 41.2077 24.252 41.834 24.6582C42.4603 25.0645 42.9766 25.6061 43.3828 26.2832C43.806 26.9434 44.0176 27.7643 44.0176 28.7461C44.0176 29.2539 43.9499 29.8379 43.8145 30.498C43.679 31.1413 43.4759 31.8184 43.2051 32.5293C43.3743 32.7324 43.569 32.8763 43.7891 32.9609C44.0091 33.0456 44.2461 33.0879 44.5 33.0879C44.8555 33.0879 45.2448 32.9863 45.668 32.7832C46.1081 32.5801 46.5566 32.3177 47.0137 31.9961C47.4707 31.6745 47.9277 31.3105 48.3848 30.9043C48.8418 30.498 49.2734 30.0918 49.6797 29.6855C50.0859 29.2793 50.4499 28.8984 50.7715 28.543C51.11 28.1706 51.3893 27.8574 51.6094 27.6035C51.7279 27.485 51.8717 27.4258 52.041 27.4258C52.278 27.4258 52.4896 27.5527 52.6758 27.8066C52.862 28.0436 52.9551 28.3822 52.9551 28.8223C52.9551 29.2624 52.8197 29.7702 52.5488 30.3457C52.2949 30.9212 51.8125 31.5221 51.1016 32.1484C50.6953 32.5885 50.2298 33.0964 49.7051 33.6719C49.1803 34.2474 48.6217 34.7891 48.0293 35.2969C47.4368 35.8047 46.819 36.2363 46.1758 36.5918C45.5326 36.9473 44.8893 37.125 44.2461 37.125C43.806 37.125 43.3743 37.0573 42.9512 36.9219C42.5449 36.7865 42.1302 36.5664 41.707 36.2617C41.0977 37.2096 40.4036 38.0729 39.625 38.8516C38.8464 39.6302 37.9746 40.2988 37.0098 40.8574C36.0618 41.416 35.0293 41.8477 33.9121 42.1523C32.8118 42.474 31.6354 42.6348 30.3828 42.6348C29.9089 42.6348 29.3587 42.5417 28.7324 42.3555C28.1061 42.1693 27.5052 41.8646 26.9297 41.4414C26.3711 41.0013 25.8971 40.4342 25.5078 39.7402C25.1185 39.0462 24.9238 38.1999 24.9238 37.2012C24.9238 36.5241 25.0339 35.7116 25.2539 34.7637C25.474 33.8158 25.804 32.8424 26.2441 31.8438C26.7012 30.8281 27.2682 29.8294 27.9453 28.8477C28.6393 27.849 29.4603 26.9603 30.4082 26.1816C31.3561 25.3861 32.4395 24.7513 33.6582 24.2773C34.877 23.7865 36.2311 23.541 37.7207 23.541Z" stroke="#FF513B" stroke-width="10" mask="url(#path-1-outside-1)"/>
<path d="M75.248 35.9316C74.5033 36.778 73.6315 37.6074 72.6328 38.4199C71.651 39.2155 70.6354 39.9264 69.5859 40.5527C68.5365 41.179 67.5039 41.6784 66.4883 42.0508C65.4727 42.4401 64.5586 42.6348 63.7461 42.6348C62.9336 42.6348 62.2734 42.4062 61.7656 41.9492C61.2578 41.4922 61.0039 40.7135 61.0039 39.6133C61.0039 38.8346 61.1393 37.929 61.4102 36.8965C60.9701 37.5566 60.4199 38.2253 59.7598 38.9023C59.0996 39.5794 58.3464 40.1973 57.5 40.7559C56.6536 41.3145 55.7057 41.763 54.6562 42.1016C53.6068 42.457 52.4642 42.6348 51.2285 42.6348C50.6699 42.6348 50.1283 42.5755 49.6035 42.457C49.0957 42.3385 48.6471 42.1354 48.2578 41.8477C47.8685 41.5599 47.5553 41.179 47.3184 40.7051C47.0814 40.2142 46.9629 39.6048 46.9629 38.877C46.9629 38.86 46.9967 38.6061 47.0645 38.1152C47.1322 37.6074 47.3438 36.8203 47.6992 35.7539C48.0716 34.6706 48.6387 33.2741 49.4004 31.5645C50.1621 29.8548 51.237 27.7812 52.625 25.3438C52.9805 24.7005 53.3867 24.2435 53.8438 23.9727C54.3177 23.6849 54.8255 23.541 55.3672 23.541C55.6042 23.541 55.8496 23.5749 56.1035 23.6426C56.3574 23.6934 56.5944 23.7865 56.8145 23.9219C57.0345 24.0404 57.2122 24.2012 57.3477 24.4043C57.4831 24.5905 57.5508 24.8105 57.5508 25.0645C57.5508 25.2337 57.5254 25.3945 57.4746 25.5469C57.39 25.8346 57.2038 26.2155 56.916 26.6895C56.6452 27.1465 56.3236 27.6797 55.9512 28.2891C55.5788 28.8815 55.181 29.5247 54.7578 30.2188C54.3516 30.9128 53.9707 31.6322 53.6152 32.377C53.2598 33.1217 52.9551 33.8835 52.7012 34.6621C52.4473 35.4238 52.3034 36.1686 52.2695 36.8965C52.2695 37.2012 52.3542 37.4805 52.5234 37.7344C52.6927 37.9883 52.972 38.1152 53.3613 38.1152C54.4616 38.1152 55.5111 37.8105 56.5098 37.2012C57.5085 36.5918 58.431 35.8385 59.2773 34.9414C60.1237 34.0273 60.8854 33.054 61.5625 32.0215C62.2565 30.972 62.832 30.0156 63.2891 29.1523C63.6107 28.5768 63.89 27.959 64.127 27.2988C64.3809 26.6387 64.6517 26.0293 64.9395 25.4707C65.2272 24.9121 65.5573 24.4466 65.9297 24.0742C66.3021 23.7018 66.7676 23.5156 67.3262 23.5156C67.9355 23.5156 68.418 23.7103 68.7734 24.0996C69.1289 24.4889 69.3066 24.9544 69.3066 25.4961C69.3066 25.8008 69.1882 26.224 68.9512 26.7656C68.7311 27.2904 68.4434 27.8997 68.0879 28.5938C67.7493 29.2708 67.377 29.9987 66.9707 30.7773C66.5645 31.556 66.1836 32.3516 65.8281 33.1641C65.4896 33.9596 65.2018 34.7467 64.9648 35.5254C64.7448 36.2871 64.6348 36.998 64.6348 37.6582C64.6348 38.2676 65.0072 38.5723 65.752 38.5723C66.2767 38.5723 66.9284 38.4199 67.707 38.1152C68.4857 37.8105 69.2982 37.3874 70.1445 36.8457C71.0078 36.2871 71.8626 35.6354 72.709 34.8906C73.5723 34.1458 74.334 33.3418 74.9941 32.4785L75.248 35.9316Z" stroke="#FF513B" stroke-width="10" mask="url(#path-1-outside-1)"/>
<path d="M86.0898 25.877C86.0898 26.4017 86.0306 26.9857 85.9121 27.6289C85.7936 28.2552 85.599 28.8477 85.3281 29.4062C85.0573 29.9648 84.7103 30.4303 84.2871 30.8027C83.8639 31.1751 83.3392 31.3613 82.7129 31.3613C82.3744 31.3613 82.1543 31.3105 82.0527 31.209C81.9681 31.1074 81.9258 30.9297 81.9258 30.6758C81.9258 30.5234 81.9258 30.3034 81.9258 30.0156C81.9427 29.7109 81.9512 29.4232 81.9512 29.1523C81.9512 28.8477 81.9089 28.5938 81.8242 28.3906C81.7396 28.1706 81.528 28.0605 81.1895 28.0605C80.8001 28.0605 80.36 28.2129 79.8691 28.5176C79.3952 28.8053 78.9128 29.1862 78.4219 29.6602C77.9479 30.1341 77.4824 30.6758 77.0254 31.2852C76.5684 31.8776 76.1536 32.487 75.7812 33.1133C75.4258 33.7227 75.138 34.3151 74.918 34.8906C74.7148 35.4661 74.6133 35.957 74.6133 36.3633C74.6133 36.9557 74.8164 37.4212 75.2227 37.7598C75.6458 38.0983 76.2129 38.2676 76.9238 38.2676C77.6855 38.2676 78.498 38.1406 79.3613 37.8867C80.2246 37.6328 81.0794 37.3112 81.9258 36.9219C82.7891 36.5326 83.6185 36.1094 84.4141 35.6523C85.2096 35.1953 85.929 34.7637 86.5723 34.3574C87.2324 33.9342 87.7826 33.5788 88.2227 33.291C88.6628 32.9863 88.9505 32.8001 89.0859 32.7324C89.3568 32.597 89.6107 32.5293 89.8477 32.5293C90.0508 32.5293 90.2201 32.5801 90.3555 32.6816C90.5078 32.7663 90.6263 32.8763 90.7109 33.0117C90.7956 33.1302 90.8548 33.2656 90.8887 33.418C90.9225 33.5534 90.9395 33.6719 90.9395 33.7734C90.9395 33.9258 90.9225 34.112 90.8887 34.332C90.8548 34.5352 90.7279 34.7721 90.5078 35.043C90.4232 35.1445 90.1439 35.4069 89.6699 35.8301C89.2129 36.2363 88.612 36.7188 87.8672 37.2773C87.1393 37.8359 86.293 38.4368 85.3281 39.0801C84.3802 39.7064 83.3561 40.2819 82.2559 40.8066C81.1725 41.3314 80.0469 41.763 78.8789 42.1016C77.7109 42.457 76.5599 42.6348 75.4258 42.6348C74.5625 42.6348 73.7923 42.4993 73.1152 42.2285C72.4551 41.9577 71.8965 41.5938 71.4395 41.1367C70.9824 40.6628 70.6354 40.1126 70.3984 39.4863C70.1615 38.86 70.043 38.1999 70.043 37.5059C70.043 36.7441 70.2207 35.8724 70.5762 34.8906C70.9316 33.8919 71.4225 32.8763 72.0488 31.8438C72.6751 30.8112 73.4115 29.7956 74.2578 28.7969C75.1042 27.7982 76.0182 26.9095 77 26.1309C77.9987 25.3522 79.0312 24.7259 80.0977 24.252C81.181 23.778 82.2728 23.541 83.373 23.541C83.7454 23.541 84.0924 23.5833 84.4141 23.668C84.7526 23.7526 85.0404 23.888 85.2773 24.0742C85.5312 24.2435 85.7259 24.4805 85.8613 24.7852C86.0137 25.0898 86.0898 25.4538 86.0898 25.877Z" stroke="#FF513B" stroke-width="10" mask="url(#path-1-outside-1)"/>
<path d="M85.7344 37.9883C86.1406 37.125 86.6061 36.1686 87.1309 35.1191C87.6556 34.0527 88.1803 33.0033 88.7051 31.9707C89.2467 30.9212 89.7546 29.931 90.2285 29C90.7025 28.0521 91.1003 27.248 91.4219 26.5879L99.8008 10.1094C99.9023 9.88932 100.055 9.67773 100.258 9.47461C100.478 9.27148 100.723 9.09375 100.994 8.94141C101.265 8.77214 101.553 8.64518 101.857 8.56055C102.162 8.45898 102.467 8.4082 102.771 8.4082C103.516 8.4082 104.033 8.55208 104.32 8.83984C104.608 9.11068 104.752 9.44922 104.752 9.85547C104.752 10.2279 104.659 10.6257 104.473 11.0488C104.286 11.4551 104.075 11.8359 103.838 12.1914C103.093 13.4609 102.374 14.7474 101.68 16.0508C101.003 17.3372 100.317 18.6406 99.623 19.9609C98.946 21.2643 98.2604 22.5677 97.5664 23.8711C96.8724 25.1576 96.1445 26.4355 95.3828 27.7051C95.8568 27.248 96.3561 26.7741 96.8809 26.2832C97.4225 25.7923 98.0065 25.3438 98.6328 24.9375C99.2591 24.5312 99.9447 24.2012 100.689 23.9473C101.434 23.6764 102.264 23.541 103.178 23.541C103.719 23.541 104.236 23.5918 104.727 23.6934C105.217 23.7949 105.649 23.9642 106.021 24.2012C106.394 24.4212 106.69 24.7344 106.91 25.1406C107.13 25.5299 107.24 26.0124 107.24 26.5879C107.24 27.3496 107.122 28.0521 106.885 28.6953C106.665 29.3216 106.377 29.9225 106.021 30.498C105.666 31.0566 105.277 31.5983 104.854 32.123C104.43 32.6309 104.024 33.1556 103.635 33.6973C103.262 34.222 102.932 34.7721 102.645 35.3477C102.374 35.9232 102.204 36.5495 102.137 37.2266C102.137 37.2604 102.128 37.2943 102.111 37.3281C102.111 37.362 102.111 37.3958 102.111 37.4297C102.111 37.7682 102.221 37.9798 102.441 38.0645C102.678 38.1491 102.975 38.1914 103.33 38.1914C103.787 38.1914 104.278 38.1068 104.803 37.9375C105.327 37.7513 105.852 37.5143 106.377 37.2266C106.919 36.9219 107.452 36.5833 107.977 36.2109C108.518 35.8385 109.026 35.4577 109.5 35.0684C109.991 34.679 110.439 34.3066 110.846 33.9512C111.252 33.5788 111.599 33.2572 111.887 32.9863C112.039 32.8509 112.2 32.7493 112.369 32.6816C112.538 32.6139 112.699 32.5801 112.852 32.5801C113.156 32.5801 113.41 32.6986 113.613 32.9355C113.833 33.1556 113.943 33.4603 113.943 33.8496C113.943 34.2051 113.816 34.6113 113.562 35.0684C113.326 35.5254 112.911 35.9824 112.318 36.4395C111.387 37.252 110.439 38.0306 109.475 38.7754C108.51 39.5202 107.536 40.1803 106.555 40.7559C105.573 41.3314 104.591 41.7884 103.609 42.127C102.645 42.4655 101.697 42.6348 100.766 42.6348C99.5638 42.6348 98.599 42.3639 97.8711 41.8223C97.1432 41.2637 96.7793 40.3919 96.7793 39.207C96.7793 38.3438 96.9232 37.5312 97.2109 36.7695C97.5156 35.9909 97.8796 35.2461 98.3027 34.5352C98.7428 33.8073 99.2083 33.1133 99.6992 32.4531C100.19 31.776 100.622 31.1159 100.994 30.4727C101.197 30.1849 101.35 29.9225 101.451 29.6855C101.57 29.4316 101.629 29.1608 101.629 28.873C101.629 28.6191 101.561 28.416 101.426 28.2637C101.29 28.0944 101.079 28.0098 100.791 28.0098C99.7923 28.0098 98.8698 28.2552 98.0234 28.7461C97.1771 29.237 96.3984 29.8633 95.6875 30.625C94.9766 31.3867 94.3164 32.2246 93.707 33.1387C93.0977 34.0358 92.5306 34.8991 92.0059 35.7285C91.7689 36.1009 91.5234 36.5326 91.2695 37.0234C91.0326 37.4974 90.7786 37.9883 90.5078 38.4961C90.2539 39.0039 89.9831 39.5117 89.6953 40.0195C89.4076 40.5104 89.1029 40.9505 88.7812 41.3398C88.4766 41.7292 88.1465 42.0423 87.791 42.2793C87.4525 42.5163 87.097 42.6348 86.7246 42.6348C86.1322 42.6348 85.6751 42.457 85.3535 42.1016C85.0319 41.763 84.8711 41.3314 84.8711 40.8066C84.8711 40.4173 84.9388 40.0111 85.0742 39.5879C85.2096 39.1478 85.4297 38.6146 85.7344 37.9883Z" stroke="#FF513B" stroke-width="10" mask="url(#path-1-outside-1)"/>
<path d="M112.166 29.584C112.691 28.416 113.122 27.4766 113.461 26.7656C113.799 26.0378 114.104 25.4792 114.375 25.0898C114.663 24.6836 114.942 24.4128 115.213 24.2773C115.501 24.1419 115.856 24.0742 116.279 24.0742C116.923 24.0742 117.473 24.2858 117.93 24.709C118.404 25.1152 118.641 25.64 118.641 26.2832C118.641 26.4355 118.615 26.5879 118.564 26.7402C118.531 26.8926 118.48 27.0449 118.412 27.1973L114.096 37.4043C114.028 37.5397 113.977 37.6921 113.943 37.8613C113.926 38.0137 113.918 38.1406 113.918 38.2422C113.918 38.4622 113.96 38.6315 114.045 38.75C114.146 38.8516 114.248 38.9023 114.35 38.9023C114.536 38.9023 114.722 38.86 114.908 38.7754C115.111 38.6908 115.34 38.5469 115.594 38.3438C115.865 38.1237 116.186 37.8359 116.559 37.4805C116.948 37.1081 117.422 36.6426 117.98 36.084C118.505 35.5254 119.047 34.8568 119.605 34.0781C120.164 33.2826 120.706 32.4531 121.23 31.5898C121.772 30.7096 122.271 29.8294 122.729 28.9492C123.186 28.0521 123.583 27.2227 123.922 26.4609C124.176 25.9531 124.404 25.5469 124.607 25.2422C124.811 24.9206 125.005 24.6751 125.191 24.5059C125.395 24.3366 125.598 24.2266 125.801 24.1758C126.004 24.1081 126.241 24.0742 126.512 24.0742C127.544 24.0742 128.061 24.5228 128.061 25.4199C128.027 25.5553 128.001 25.7077 127.984 25.877C127.984 26.0462 127.942 26.2409 127.857 26.4609L123.896 38.166C123.896 38.5892 124.108 38.8008 124.531 38.8008C124.836 38.7669 125.234 38.6146 125.725 38.3438C126.232 38.056 126.74 37.7005 127.248 37.2773C127.756 36.8372 128.23 36.3379 128.67 35.7793C129.11 35.2038 129.432 34.6113 129.635 34.002C130.007 32.8848 130.38 31.7591 130.752 30.625C131.141 29.4909 131.548 28.4668 131.971 27.5527C132.411 26.6217 132.876 25.86 133.367 25.2676C133.875 24.6582 134.434 24.3281 135.043 24.2773C135.585 24.2773 136.025 24.4551 136.363 24.8105C136.719 25.1491 136.896 25.5977 136.896 26.1562C136.896 26.8164 136.803 27.5273 136.617 28.2891C136.448 29.0508 136.219 29.8125 135.932 30.5742C135.644 31.3359 135.297 32.0723 134.891 32.7832C134.501 33.4941 134.095 34.1374 133.672 34.7129C133.79 35.0684 134.036 35.2461 134.408 35.2461C135.068 35.2461 135.686 35.1953 136.262 35.0938C136.854 34.9922 137.421 34.8483 137.963 34.6621C138.521 34.459 139.072 34.222 139.613 33.9512C140.172 33.6803 140.747 33.3672 141.34 33.0117C141.611 32.8255 141.882 32.7324 142.152 32.7324C142.491 32.7324 142.796 32.8594 143.066 33.1133C143.337 33.3672 143.473 33.6973 143.473 34.1035C143.473 34.4759 143.303 34.8568 142.965 35.2461C142.643 35.6354 142.212 36.0163 141.67 36.3887C141.128 36.7611 140.51 37.1081 139.816 37.4297C139.139 37.7513 138.445 38.0391 137.734 38.293C137.04 38.5299 136.363 38.7246 135.703 38.877C135.06 39.0124 134.493 39.0801 134.002 39.0801C133.054 39.0801 132.081 38.8092 131.082 38.2676C129.897 39.6895 128.661 40.7728 127.375 41.5176C126.105 42.2624 124.811 42.6348 123.49 42.6348C122.271 42.6348 121.391 42.3216 120.85 41.6953C120.325 41.0521 120.062 40.1211 120.062 38.9023C118.793 40.1888 117.6 41.1367 116.482 41.7461C115.382 42.3385 114.248 42.6348 113.08 42.6348C112.335 42.6348 111.709 42.5417 111.201 42.3555C110.71 42.1862 110.312 41.9408 110.008 41.6191C109.703 41.2975 109.483 40.9251 109.348 40.502C109.229 40.0618 109.17 39.5879 109.17 39.0801C109.17 38.2507 109.288 37.3789 109.525 36.4648C109.762 35.5339 110.042 34.6367 110.363 33.7734C110.702 32.9102 111.032 32.1146 111.354 31.3867C111.692 30.6419 111.963 30.041 112.166 29.584Z" stroke="#FF513B" stroke-width="10" mask="url(#path-1-outside-1)"/>
<path d="M149.643 28.0098C148.847 28.0098 148.077 28.2129 147.332 28.6191C146.604 29.0085 145.952 29.5332 145.377 30.1934C144.818 30.8366 144.37 31.5729 144.031 32.4023C143.693 33.2148 143.523 34.0527 143.523 34.916C143.523 35.2376 143.549 35.5931 143.6 35.9824C143.65 36.3548 143.752 36.7103 143.904 37.0488C144.074 37.3704 144.311 37.6413 144.615 37.8613C144.92 38.0814 145.326 38.1914 145.834 38.1914C146.613 38.1914 147.366 37.9883 148.094 37.582C148.839 37.1589 149.499 36.6172 150.074 35.957C150.65 35.2799 151.107 34.5182 151.445 33.6719C151.784 32.8255 151.953 31.9707 151.953 31.1074C151.953 30.7689 151.928 30.4219 151.877 30.0664C151.843 29.694 151.742 29.3555 151.572 29.0508C151.42 28.7461 151.191 28.5007 150.887 28.3145C150.582 28.1113 150.167 28.0098 149.643 28.0098ZM150.963 23.541C151.606 23.541 152.292 23.6257 153.02 23.7949C153.764 23.9642 154.45 24.252 155.076 24.6582C155.702 25.0645 156.219 25.6061 156.625 26.2832C157.048 26.9434 157.26 27.7643 157.26 28.7461C157.26 29.2539 157.192 29.8379 157.057 30.498C156.921 31.1413 156.718 31.8184 156.447 32.5293C156.617 32.7324 156.811 32.8763 157.031 32.9609C157.251 33.0456 157.488 33.0879 157.742 33.0879C158.098 33.0879 158.487 32.9863 158.91 32.7832C159.35 32.5801 159.799 32.3177 160.256 31.9961C160.713 31.6745 161.17 31.3105 161.627 30.9043C162.084 30.498 162.516 30.0918 162.922 29.6855C163.328 29.2793 163.692 28.8984 164.014 28.543C164.352 28.1706 164.632 27.8574 164.852 27.6035C164.97 27.485 165.114 27.4258 165.283 27.4258C165.52 27.4258 165.732 27.5527 165.918 27.8066C166.104 28.0436 166.197 28.3822 166.197 28.8223C166.197 29.2624 166.062 29.7702 165.791 30.3457C165.537 30.9212 165.055 31.5221 164.344 32.1484C163.938 32.5885 163.472 33.0964 162.947 33.6719C162.423 34.2474 161.864 34.7891 161.271 35.2969C160.679 35.8047 160.061 36.2363 159.418 36.5918C158.775 36.9473 158.132 37.125 157.488 37.125C157.048 37.125 156.617 37.0573 156.193 36.9219C155.787 36.7865 155.372 36.5664 154.949 36.2617C154.34 37.2096 153.646 38.0729 152.867 38.8516C152.089 39.6302 151.217 40.2988 150.252 40.8574C149.304 41.416 148.271 41.8477 147.154 42.1523C146.054 42.474 144.878 42.6348 143.625 42.6348C143.151 42.6348 142.601 42.5417 141.975 42.3555C141.348 42.1693 140.747 41.8646 140.172 41.4414C139.613 41.0013 139.139 40.4342 138.75 39.7402C138.361 39.0462 138.166 38.1999 138.166 37.2012C138.166 36.5241 138.276 35.7116 138.496 34.7637C138.716 33.8158 139.046 32.8424 139.486 31.8438C139.943 30.8281 140.51 29.8294 141.188 28.8477C141.882 27.849 142.702 26.9603 143.65 26.1816C144.598 25.3861 145.682 24.7513 146.9 24.2773C148.119 23.7865 149.473 23.541 150.963 23.541Z" stroke="#FF513B" stroke-width="10" mask="url(#path-1-outside-1)"/>
<path d="M171.174 28.0098C170.378 28.0098 169.608 28.2129 168.863 28.6191C168.135 29.0085 167.484 29.5332 166.908 30.1934C166.35 30.8366 165.901 31.5729 165.562 32.4023C165.224 33.2148 165.055 34.0527 165.055 34.916C165.055 35.2376 165.08 35.5931 165.131 35.9824C165.182 36.3548 165.283 36.7103 165.436 37.0488C165.605 37.3704 165.842 37.6413 166.146 37.8613C166.451 38.0814 166.857 38.1914 167.365 38.1914C168.144 38.1914 168.897 37.9883 169.625 37.582C170.37 37.1589 171.03 36.6172 171.605 35.957C172.181 35.2799 172.638 34.5182 172.977 33.6719C173.315 32.8255 173.484 31.9707 173.484 31.1074C173.484 30.7689 173.459 30.4219 173.408 30.0664C173.374 29.694 173.273 29.3555 173.104 29.0508C172.951 28.7461 172.723 28.5007 172.418 28.3145C172.113 28.1113 171.699 28.0098 171.174 28.0098ZM172.494 23.541C173.137 23.541 173.823 23.6257 174.551 23.7949C175.296 23.9642 175.981 24.252 176.607 24.6582C177.234 25.0645 177.75 25.6061 178.156 26.2832C178.579 26.9434 178.791 27.7643 178.791 28.7461C178.791 29.2539 178.723 29.8379 178.588 30.498C178.452 31.1413 178.249 31.8184 177.979 32.5293C178.148 32.7324 178.342 32.8763 178.562 32.9609C178.783 33.0456 179.02 33.0879 179.273 33.0879C179.629 33.0879 180.018 32.9863 180.441 32.7832C180.882 32.5801 181.33 32.3177 181.787 31.9961C182.244 31.6745 182.701 31.3105 183.158 30.9043C183.615 30.498 184.047 30.0918 184.453 29.6855C184.859 29.2793 185.223 28.8984 185.545 28.543C185.883 28.1706 186.163 27.8574 186.383 27.6035C186.501 27.485 186.645 27.4258 186.814 27.4258C187.051 27.4258 187.263 27.5527 187.449 27.8066C187.635 28.0436 187.729 28.3822 187.729 28.8223C187.729 29.2624 187.593 29.7702 187.322 30.3457C187.068 30.9212 186.586 31.5221 185.875 32.1484C185.469 32.5885 185.003 33.0964 184.479 33.6719C183.954 34.2474 183.395 34.7891 182.803 35.2969C182.21 35.8047 181.592 36.2363 180.949 36.5918C180.306 36.9473 179.663 37.125 179.02 37.125C178.579 37.125 178.148 37.0573 177.725 36.9219C177.318 36.7865 176.904 36.5664 176.48 36.2617C175.871 37.2096 175.177 38.0729 174.398 38.8516C173.62 39.6302 172.748 40.2988 171.783 40.8574C170.835 41.416 169.803 41.8477 168.686 42.1523C167.585 42.474 166.409 42.6348 165.156 42.6348C164.682 42.6348 164.132 42.5417 163.506 42.3555C162.88 42.1693 162.279 41.8646 161.703 41.4414C161.145 41.0013 160.671 40.4342 160.281 39.7402C159.892 39.0462 159.697 38.1999 159.697 37.2012C159.697 36.5241 159.807 35.7116 160.027 34.7637C160.247 33.8158 160.577 32.8424 161.018 31.8438C161.475 30.8281 162.042 29.8294 162.719 28.8477C163.413 27.849 164.234 26.9603 165.182 26.1816C166.13 25.3861 167.213 24.7513 168.432 24.2773C169.65 23.7865 171.005 23.541 172.494 23.541Z" stroke="#FF513B" stroke-width="10" mask="url(#path-1-outside-1)"/>
<path d="M198.443 36.8457C198.426 36.8796 198.418 36.9219 198.418 36.9727C198.418 37.0234 198.41 37.0658 198.393 37.0996C198.393 37.4043 198.469 37.7259 198.621 38.0645C198.773 38.3861 199.019 38.5469 199.357 38.5469C199.493 38.5469 199.594 38.5299 199.662 38.4961C200.627 38.2083 201.6 37.7513 202.582 37.125C203.581 36.4987 204.537 35.8132 205.451 35.0684C206.365 34.3236 207.203 33.5618 207.965 32.7832C208.743 32.0046 209.387 31.3105 209.895 30.7012C210.132 30.4134 210.394 30.2695 210.682 30.2695C210.936 30.2695 211.156 30.388 211.342 30.625C211.545 30.862 211.646 31.1836 211.646 31.5898C211.646 31.9115 211.553 32.2923 211.367 32.7324C211.198 33.1725 210.91 33.6465 210.504 34.1543C209.505 35.2546 208.481 36.3125 207.432 37.3281C206.382 38.3438 205.324 39.2493 204.258 40.0449C203.191 40.8236 202.125 41.4499 201.059 41.9238C200.009 42.3978 198.977 42.6348 197.961 42.6348C196.725 42.6348 195.752 42.2878 195.041 41.5938C194.33 40.8828 193.975 39.8249 193.975 38.4199C193.975 38.3353 193.975 38.2507 193.975 38.166C193.975 38.0645 193.983 37.9714 194 37.8867C193.611 38.5977 193.111 39.2493 192.502 39.8418C191.893 40.4173 191.224 40.9167 190.496 41.3398C189.768 41.7461 189.015 42.0592 188.236 42.2793C187.458 42.5163 186.704 42.6348 185.977 42.6348C185.35 42.6348 184.775 42.5501 184.25 42.3809C183.725 42.2116 183.268 41.9408 182.879 41.5684C182.507 41.196 182.21 40.722 181.99 40.1465C181.787 39.571 181.686 38.877 181.686 38.0645C181.686 36.6426 181.906 35.2969 182.346 34.0273C182.786 32.7409 183.37 31.5645 184.098 30.498C184.826 29.4147 185.655 28.4499 186.586 27.6035C187.534 26.7402 188.507 26.0124 189.506 25.4199C190.521 24.8105 191.529 24.3451 192.527 24.0234C193.526 23.7018 194.44 23.541 195.27 23.541C196.234 23.541 197.064 23.7018 197.758 24.0234C198.096 24.1927 198.41 24.4212 198.697 24.709C198.765 24.5566 198.833 24.4128 198.9 24.2773C199.07 23.8711 199.222 23.5241 199.357 23.2363C199.493 22.9316 199.586 22.7116 199.637 22.5762C199.688 22.4238 199.831 22.0684 200.068 21.5098C200.305 20.9512 200.576 20.2995 200.881 19.5547C201.202 18.793 201.541 17.9805 201.896 17.1172C202.269 16.2539 202.607 15.4414 202.912 14.6797C203.217 13.918 203.479 13.2663 203.699 12.7246C203.919 12.166 204.055 11.8105 204.105 11.6582C204.224 11.235 204.385 10.8288 204.588 10.4395C204.791 10.0332 205.028 9.6862 205.299 9.39844C205.587 9.09375 205.917 8.85677 206.289 8.6875C206.661 8.5013 207.085 8.4082 207.559 8.4082C208.202 8.4082 208.735 8.55208 209.158 8.83984C209.581 9.11068 209.793 9.64388 209.793 10.4395C209.793 10.7611 209.751 11.0911 209.666 11.4297C209.581 11.7682 209.48 12.0983 209.361 12.4199C209.26 12.7415 209.141 13.0632 209.006 13.3848C208.887 13.6895 208.777 13.9772 208.676 14.248C207.829 15.9408 206.941 17.7858 206.01 19.7832C205.079 21.7637 204.156 23.7611 203.242 25.7754C202.328 27.7897 201.456 29.7533 200.627 31.666C199.798 33.5788 199.07 35.3053 198.443 36.8457ZM197.682 26.918C196.666 26.9518 195.6 27.1719 194.482 27.5781C193.196 28.0182 192.02 28.6784 190.953 29.5586C189.887 30.4219 188.981 31.4883 188.236 32.7578C187.508 34.0273 187.094 35.4831 186.992 37.125C186.992 37.8021 187.28 38.1406 187.855 38.1406C188.566 38.1406 189.243 37.9967 189.887 37.709C190.53 37.4043 191.139 37.0065 191.715 36.5156C192.307 36.0078 192.857 35.4323 193.365 34.7891C193.873 34.1458 194.339 33.4772 194.762 32.7832C195.202 32.0892 195.591 31.4036 195.93 30.7266C196.285 30.0326 196.59 29.3893 196.844 28.7969C196.928 28.6107 197.047 28.3483 197.199 28.0098C197.335 27.6882 197.495 27.3242 197.682 26.918Z" stroke="#FF513B" stroke-width="10" mask="url(#path-1-outside-1)"/>
<path d="M236.834 41.7969C235.717 41.6784 234.718 41.6022 233.838 41.5684C232.975 41.5176 232.162 41.4922 231.4 41.4922C230.893 41.4922 230.393 41.5007 229.902 41.5176C229.428 41.5345 228.946 41.5514 228.455 41.5684C227.981 41.5684 227.482 41.5768 226.957 41.5938C226.449 41.6107 225.908 41.6191 225.332 41.6191C224.773 41.6191 224.342 41.4583 224.037 41.1367C223.732 40.8151 223.58 40.4173 223.58 39.9434C223.58 39.7572 223.605 39.5625 223.656 39.3594C223.707 39.1901 223.902 39.0124 224.24 38.8262C224.596 38.623 225.053 38.4368 225.611 38.2676C226.187 38.0814 226.855 37.9206 227.617 37.7852C228.379 37.6497 229.191 37.5482 230.055 37.4805C230.935 35.5677 231.849 33.638 232.797 31.6914C233.762 29.7279 234.727 27.8236 235.691 25.9785C236.656 24.1165 237.596 22.3392 238.51 20.6465C239.424 18.9538 240.279 17.4134 241.074 16.0254C241.87 14.6204 242.581 13.4017 243.207 12.3691C243.85 11.3366 244.375 10.5495 244.781 10.0078C243.918 10.194 243.08 10.3971 242.268 10.6172C241.455 10.8203 240.541 11.0234 239.525 11.2266C239.322 11.2943 239.119 11.3281 238.916 11.3281C238.425 11.3281 238.044 11.1589 237.773 10.8203C237.503 10.4648 237.367 10.0417 237.367 9.55078C237.367 9.33073 237.562 9.07682 237.951 8.78906C238.357 8.48438 238.908 8.17969 239.602 7.875C240.312 7.55339 241.142 7.2487 242.09 6.96094C243.055 6.65625 244.096 6.38542 245.213 6.14844C246.347 5.91146 247.532 5.72526 248.768 5.58984C250.02 5.4375 251.281 5.36133 252.551 5.36133C253.736 5.36133 254.658 5.48828 255.318 5.74219C255.995 5.97917 256.334 6.39388 256.334 6.98633C256.334 7.27409 256.249 7.57031 256.08 7.875C255.911 8.16276 255.682 8.42513 255.395 8.66211C255.124 8.89909 254.794 9.09375 254.404 9.24609C254.015 9.38151 253.609 9.44922 253.186 9.44922C252.949 9.44922 252.729 9.44076 252.525 9.42383C252.322 9.38997 252.102 9.37305 251.865 9.37305C251.239 9.37305 250.655 9.38997 250.113 9.42383C249.572 9.44076 249.055 9.46615 248.564 9.5C248.598 9.66927 248.615 9.79622 248.615 9.88086C248.615 10.1178 248.573 10.3464 248.488 10.5664C248.404 10.7695 248.319 10.9642 248.234 11.1504C247.71 12.2507 247.075 13.5794 246.33 15.1367C245.585 16.6771 244.79 18.319 243.943 20.0625C243.097 21.806 242.234 23.5749 241.354 25.3691C240.49 27.1634 239.669 28.8561 238.891 30.4473C238.112 32.0384 237.41 33.4603 236.783 34.7129C236.157 35.9486 235.683 36.888 235.361 37.5312C236.309 37.6159 237.181 37.7344 237.977 37.8867C238.772 38.0221 239.449 38.1999 240.008 38.4199C240.583 38.623 241.032 38.8685 241.354 39.1562C241.675 39.444 241.836 39.7656 241.836 40.1211C241.836 40.375 241.751 40.6289 241.582 40.8828C241.413 41.1198 241.193 41.3398 240.922 41.543C240.651 41.7292 240.346 41.8815 240.008 42C239.669 42.1016 239.322 42.1523 238.967 42.1523C238.577 42.1523 238.205 42.1016 237.85 42C237.511 41.8984 237.173 41.8307 236.834 41.7969Z" stroke="#FF513B" stroke-width="10" mask="url(#path-1-outside-1)"/>
<path d="M251.129 26.5879C251.467 25.86 251.891 25.3184 252.398 24.9629C252.906 24.6074 253.406 24.4297 253.896 24.4297C254.303 24.4297 254.667 24.582 254.988 24.8867C255.31 25.1745 255.471 25.6061 255.471 26.1816C255.471 26.4017 255.445 26.6387 255.395 26.8926C255.344 27.1465 255.251 27.4173 255.115 27.7051C255.488 27.2311 256.021 26.7487 256.715 26.2578C257.409 25.75 258.171 25.3014 259 24.9121C259.846 24.5059 260.71 24.1758 261.59 23.9219C262.487 23.668 263.333 23.541 264.129 23.541C265.026 23.541 265.771 23.7611 266.363 24.2012C266.973 24.6243 267.277 25.3522 267.277 26.3848C267.277 26.9941 267.184 27.6289 266.998 28.2891C266.812 28.9492 266.566 29.6094 266.262 30.2695C265.974 30.9297 265.644 31.5814 265.271 32.2246C264.916 32.8509 264.561 33.4434 264.205 34.002C263.85 34.5605 263.52 35.0768 263.215 35.5508C262.927 36.0078 262.699 36.3887 262.529 36.6934C262.309 36.9642 262.199 37.2773 262.199 37.6328C262.199 37.7682 262.242 37.8867 262.326 37.9883C262.411 38.0898 262.546 38.1406 262.732 38.1406C262.851 38.1406 262.986 38.1322 263.139 38.1152C263.291 38.0814 263.477 37.9883 263.697 37.8359C264.611 37.4974 265.542 37.0742 266.49 36.5664C267.455 36.0586 268.378 35.5254 269.258 34.9668C270.138 34.3913 270.942 33.8242 271.67 33.2656C272.415 32.6901 273.033 32.1738 273.523 31.7168C273.659 31.5983 273.794 31.5137 273.93 31.4629C274.065 31.4121 274.192 31.3867 274.311 31.3867C274.598 31.3867 274.818 31.4967 274.971 31.7168C275.14 31.9368 275.225 32.2161 275.225 32.5547C275.225 33.0794 275.055 33.6634 274.717 34.3066C274.395 34.9499 273.879 35.5508 273.168 36.1094C272.203 36.8034 271.314 37.4382 270.502 38.0137C269.706 38.5892 268.885 39.1309 268.039 39.6387C267.21 40.1296 266.312 40.5951 265.348 41.0352C264.4 41.4583 263.283 41.8561 261.996 42.2285C261.556 42.3639 261.15 42.4655 260.777 42.5332C260.422 42.6009 260.092 42.6348 259.787 42.6348C258.89 42.6348 258.23 42.3893 257.807 41.8984C257.4 41.3906 257.197 40.6882 257.197 39.791C257.197 39.6725 257.197 39.5625 257.197 39.4609C257.214 39.3424 257.231 39.2155 257.248 39.0801C257.282 38.5553 257.417 37.9798 257.654 37.3535C257.908 36.7272 258.204 36.084 258.543 35.4238C258.898 34.7637 259.271 34.112 259.66 33.4688C260.049 32.8086 260.405 32.1908 260.727 31.6152C261.065 31.0228 261.344 30.498 261.564 30.041C261.785 29.584 261.895 29.2116 261.895 28.9238C261.895 28.6699 261.818 28.4583 261.666 28.2891C261.531 28.1029 261.319 28.0098 261.031 28.0098C259.948 28.0098 258.915 28.3314 257.934 28.9746C256.969 29.6178 256.063 30.4134 255.217 31.3613C254.37 32.2923 253.592 33.2826 252.881 34.332C252.17 35.3815 251.544 36.321 251.002 37.1504C250.663 37.709 250.35 38.3099 250.062 38.9531C249.792 39.5794 249.504 40.1719 249.199 40.7305C248.895 41.2721 248.548 41.7207 248.158 42.0762C247.786 42.4486 247.312 42.6348 246.736 42.6348C246.144 42.6348 245.678 42.4486 245.34 42.0762C245.001 41.7038 244.832 41.2467 244.832 40.7051C244.832 40.4173 244.951 39.9518 245.188 39.3086C245.424 38.6654 245.729 37.9206 246.102 37.0742C246.474 36.2279 246.889 35.3223 247.346 34.3574C247.82 33.3757 248.285 32.4108 248.742 31.4629C249.216 30.498 249.665 29.5924 250.088 28.7461C250.511 27.8997 250.858 27.1803 251.129 26.5879Z" stroke="#FF513B" stroke-width="10" mask="url(#path-1-outside-1)"/>
<path d="M285.559 25.877C285.559 26.4017 285.499 26.9857 285.381 27.6289C285.262 28.2552 285.068 28.8477 284.797 29.4062C284.526 29.9648 284.179 30.4303 283.756 30.8027C283.333 31.1751 282.808 31.3613 282.182 31.3613C281.843 31.3613 281.623 31.3105 281.521 31.209C281.437 31.1074 281.395 30.9297 281.395 30.6758C281.395 30.5234 281.395 30.3034 281.395 30.0156C281.411 29.7109 281.42 29.4232 281.42 29.1523C281.42 28.8477 281.378 28.5938 281.293 28.3906C281.208 28.1706 280.997 28.0605 280.658 28.0605C280.269 28.0605 279.829 28.2129 279.338 28.5176C278.864 28.8053 278.382 29.1862 277.891 29.6602C277.417 30.1341 276.951 30.6758 276.494 31.2852C276.037 31.8776 275.622 32.487 275.25 33.1133C274.895 33.7227 274.607 34.3151 274.387 34.8906C274.184 35.4661 274.082 35.957 274.082 36.3633C274.082 36.9557 274.285 37.4212 274.691 37.7598C275.115 38.0983 275.682 38.2676 276.393 38.2676C277.154 38.2676 277.967 38.1406 278.83 37.8867C279.693 37.6328 280.548 37.3112 281.395 36.9219C282.258 36.5326 283.087 36.1094 283.883 35.6523C284.678 35.1953 285.398 34.7637 286.041 34.3574C286.701 33.9342 287.251 33.5788 287.691 33.291C288.132 32.9863 288.419 32.8001 288.555 32.7324C288.826 32.597 289.079 32.5293 289.316 32.5293C289.52 32.5293 289.689 32.5801 289.824 32.6816C289.977 32.7663 290.095 32.8763 290.18 33.0117C290.264 33.1302 290.324 33.2656 290.357 33.418C290.391 33.5534 290.408 33.6719 290.408 33.7734C290.408 33.9258 290.391 34.112 290.357 34.332C290.324 34.5352 290.197 34.7721 289.977 35.043C289.892 35.1445 289.613 35.4069 289.139 35.8301C288.682 36.2363 288.081 36.7188 287.336 37.2773C286.608 37.8359 285.762 38.4368 284.797 39.0801C283.849 39.7064 282.825 40.2819 281.725 40.8066C280.641 41.3314 279.516 41.763 278.348 42.1016C277.18 42.457 276.029 42.6348 274.895 42.6348C274.031 42.6348 273.261 42.4993 272.584 42.2285C271.924 41.9577 271.365 41.5938 270.908 41.1367C270.451 40.6628 270.104 40.1126 269.867 39.4863C269.63 38.86 269.512 38.1999 269.512 37.5059C269.512 36.7441 269.689 35.8724 270.045 34.8906C270.4 33.8919 270.891 32.8763 271.518 31.8438C272.144 30.8112 272.88 29.7956 273.727 28.7969C274.573 27.7982 275.487 26.9095 276.469 26.1309C277.467 25.3522 278.5 24.7259 279.566 24.252C280.65 23.778 281.742 23.541 282.842 23.541C283.214 23.541 283.561 23.5833 283.883 23.668C284.221 23.7526 284.509 23.888 284.746 24.0742C285 24.2435 285.195 24.4805 285.33 24.7852C285.482 25.0898 285.559 25.4538 285.559 25.877Z" stroke="#FF513B" stroke-width="10" mask="url(#path-1-outside-1)"/>
</svg>
